<?xml version="1.0" encoding="UTF-8"?>
<!DOCTYPE svg PUBLIC "-//W3C//DTD SVG 1.1//EN" "http://www.w3.org/Graphics/SVG/1.1/DTD/svg11.dtd">
<svg xmlns="http://www.w3.org/2000/svg" version="1.1" width="352px" height="320px" style="shape-rendering:geometricPrecision; text-rendering:geometricPrecision; image-rendering:optimizeQuality; fill-rule:evenodd; clip-rule:evenodd" xmlns:xlink="http://www.w3.org/1999/xlink">
<g><path style="opacity:1" fill="#fff" d="M 12.5,-0.5 C 14.5,-0.5 16.5,-0.5 18.5,-0.5C 20.7415,0.620727 23.0748,1.78739 25.5,3C 75.347,53.0137 125.347,102.847 175.5,152.5C 225.653,102.847 275.653,53.0137 325.5,3C 327.925,1.78739 330.259,0.620727 332.5,-0.5C 334.5,-0.5 336.5,-0.5 338.5,-0.5C 345.167,1.5 349.5,5.83333 351.5,12.5C 351.5,14.5 351.5,16.5 351.5,18.5C 350.379,20.7415 349.213,23.0748 348,25.5C 293.833,79.6667 239.667,133.833 185.5,188C 178.833,192.667 172.167,192.667 165.5,188C 111.333,133.833 57.1667,79.6667 3,25.5C 1.78739,23.0748 0.620727,20.7415 -0.5,18.5C -0.5,16.5 -0.5,14.5 -0.5,12.5C 1.5,5.83333 5.83333,1.5 12.5,-0.5 Z"/></g>
<g><path style="opacity:1" fill="#fff" d="M 351.5,140.5 C 351.5,142.5 351.5,144.5 351.5,146.5C 350.379,148.741 349.213,151.075 348,153.5C 293.833,207.667 239.667,261.833 185.5,316C 183.075,317.213 180.741,318.379 178.5,319.5C 176.5,319.5 174.5,319.5 172.5,319.5C 170.259,318.379 167.925,317.213 165.5,316C 111.333,261.833 57.1667,207.667 3,153.5C 1.78739,151.075 0.620727,148.741 -0.5,146.5C -0.5,144.5 -0.5,142.5 -0.5,140.5C 4.69776,128.154 13.3644,124.987 25.5,131C 75.347,181.014 125.347,230.847 175.5,280.5C 225.653,230.847 275.653,181.014 325.5,131C 337.636,124.987 346.302,128.154 351.5,140.5 Z"/></g>
</svg>
